<?xml version="1.0" encoding="UTF-8"?>
<svg version="1.1" xmlns="http://www.w3.org/2000/svg" width="250" height="250">
<path d="M0 0 C1.61849448 1.35810578 3.22343479 2.73257497 4.8125 4.125 C5.50085938 4.71796875 6.18921875 5.3109375 6.8984375 5.921875 C22.78155112 20.61218562 29.84380369 42.00329107 30.97265625 63.12109375 C31.71419381 91.00935433 22.0160405 116.07517617 3 136.375 C-18.96846295 157.2450398 -46.15262189 161.92676644 -75.42280579 161.36653137 C-88.10928735 161.0024936 -99.78951562 157.68499238 -111.1875 152.125 C-112.09628906 151.70734375 -113.00507812 151.2896875 -113.94140625 150.859375 C-121.90270222 146.91836362 -127.96857727 141.33520054 -134.1875 135.125 C-134.93128906 134.3928125 -135.67507813 133.660625 -136.44140625 132.90625 C-145.41833372 123.49013822 -151.25813743 111.41914197 -155.1875 99.125 C-155.5071875 98.14273438 -155.826875 97.16046875 -156.15625 96.1484375 C-162.36686962 72.97362539 -158.80374593 47.63393775 -147.34765625 26.7734375 C-134.70250535 4.89795669 -115.53756234 -9.78020503 -91.36962891 -16.70947266 C-61.30855864 -24.3753572 -24.74363741 -19.22419173 0 0 Z M-114.1875 9.125 C-114.82429687 9.72828125 -115.46109375 10.3315625 -116.1171875 10.953125 C-130.42835423 25.58231766 -133.30997709 48.90577142 -133.2265625 68.40625 C-132.21230868 92.55515049 -124.38029156 116.67096182 -106.71289062 133.73632812 C-98.67003816 141.05831033 -89.57891234 145.92970783 -79.1875 149.125 C-78.41664063 149.36992187 -77.64578125 149.61484375 -76.8515625 149.8671875 C-60.65143378 154.01669415 -42.65549738 151.61942429 -28.06640625 143.83984375 C-11.268189 133.83385003 -3.13665559 118.81297972 2.015625 100.484375 C3.85817562 92.71675962 4.02997987 85.12327916 4.05273438 77.17626953 C4.06234555 75.15744279 4.09339016 73.13967849 4.125 71.12109375 C4.21550774 47.97373859 -2.79629197 26.51935458 -18.81640625 9.47265625 C-31.93614153 -3.51739466 -47.52741491 -10.06280119 -65.9375 -10.3125 C-84.7377043 -10.19976571 -100.80605649 -4.39631923 -114.1875 9.125 Z " fill="#ffff" transform="translate(190,76)"/>
<path d="M0 0 C2 1 2 1 2.7890625 3.1171875 C3.06492187 4.02726563 3.34078125 4.93734375 3.625 5.875 C7.18080182 15.97820075 13.71024827 24.53631589 23 30 C29.03426565 32.68098488 35.38035895 35.12179086 42.046875 35.1328125 C42.81 35.13410156 43.573125 35.13539062 44.359375 35.13671875 C45.14828125 35.13285156 45.9371875 35.12898438 46.75 35.125 C47.5234375 35.12886719 48.296875 35.13273437 49.09375 35.13671875 C54.14733753 35.12823958 58.99767677 34.71951225 64 34 C60.47851723 41.38012878 56.74728968 48.33359321 52 55 C51.05382812 54.54109375 50.10765625 54.0821875 49.1328125 53.609375 C36.14147718 47.50773684 22.42255291 43.5674447 8 43 C7.06929687 42.9484375 6.13859375 42.896875 5.1796875 42.84375 C-12.72596629 42.3052341 -32.30510079 46.17161919 -48 55 C-49.58581978 52.96022417 -51.16868908 50.91826692 -52.75 48.875 C-53.1934375 48.30523437 -53.636875 47.73546875 -54.09375 47.1484375 C-62 36.91681985 -62 36.91681985 -62 34 C-61.01 34.165 -60.02 34.33 -59 34.5 C-42.29890134 36.51360764 -27.80639827 34.89064809 -14.0703125 24.546875 C-6.97855271 18.30612638 -3.3391071 8.63281348 0 0 Z " fill="#ffff" transform="translate(125,4)"/>
</svg>
